# xmcd
#
# Track frame offsets:
#	150
#	16682
#	38177
#	60521
#	68906
#	88190
#	101600
#	114182
#	128569
#	141626
#	157080
#	174435
#
# Disc length: 2548 seconds
#
# Revision: 1
# Processed by: cddbd v1.5.2PL0 Copyright (c) Steve Scherf et al.
# Submitted via: audiograbber 1.83.01
#
DISCID=9c09f20c
DTITLE=Houda J. Bobby - Wanderer
DYEAR=1991
DGENRE=country
TTITLE0=Street Man
TTITLE1=Man In Love
TTITLE2=Wandering Swallows
TTITLE3=Passing Dream
TTITLE4=Good Ol' Usa
TTITLE5=Wanderer
TTITLE6=Woman
TTITLE7=Silent Love
TTITLE8=I Feel So Good
TTITLE9=Nights In White Satin
TTITLE10=Boogie Children
TTITLE11=Life Is Fun
EXTD=
EXTT0=
EXTT1=
EXTT2=
EXTT3=
EXTT4=
EXTT5=
EXTT6=
EXTT7=
EXTT8=
EXTT9=
EXTT10=
EXTT11=
PLAYORDER=
